<svg id="svg" version="1.1" xmlns="http://www.w3.org/2000/svg" xmlns:xlink="http://www.w3.org/1999/xlink" width="400" height="400" viewBox="0, 0, 400,400"><g id="svgg"><path id="path0" d="M127.122 83.500 L 127.000 85.400 125.100 85.522 L 123.200 85.644 123.200 97.622 L 123.200 109.600 121.211 109.600 L 119.221 109.600 119.111 103.700 L 119.000 97.800 117.200 97.800 L 115.400 97.800 115.400 109.600 L 115.400 121.400 117.258 121.520 L 119.115 121.640 119.374 123.367 C 119.621 125.011,119.713 125.110,121.317 125.447 C 122.980 125.796,123.001 125.822,123.121 127.679 L 123.242 129.558 125.121 129.679 L 127.000 129.800 127.114 133.679 L 127.228 137.557 129.114 137.679 L 131.000 137.800 131.122 139.700 L 131.244 141.600 132.998 141.600 C 134.984 141.600,135.300 141.916,135.359 143.957 C 135.400 145.386,135.419 145.401,137.279 145.521 L 139.158 145.642 139.279 147.521 L 139.400 149.400 141.300 149.522 C 143.301 149.650,143.212 149.538,143.359 152.112 C 143.413 153.055,144.312 153.586,145.865 153.594 C 147.040 153.600,147.150 153.720,147.414 155.300 C 147.733 157.208,148.110 157.585,149.710 157.594 C 150.895 157.600,151.600 158.723,151.600 160.603 C 151.600 161.436,151.811 161.569,153.300 161.677 L 155.000 161.800 155.122 163.700 C 155.242 165.566,155.268 165.600,156.589 165.600 C 158.832 165.600,159.200 165.909,159.200 167.791 L 159.200 169.497 161.200 169.762 L 163.200 170.028 163.200 171.767 C 163.200 173.631,163.649 173.982,166.053 173.995 C 167.141 174.000,167.583 174.775,167.595 176.700 C 167.599 177.481,167.810 177.600,169.186 177.600 C 170.789 177.600,171.580 178.288,171.506 179.617 C 171.410 181.349,171.601 181.600,173.013 181.600 C 174.502 181.600,174.590 181.488,174.987 179.100 C 175.230 177.636,175.278 177.600,176.967 177.600 L 178.697 177.600 178.962 175.600 L 179.228 173.600 180.980 173.600 L 182.732 173.600 182.995 170.700 C 183.140 169.105,183.200 166.540,183.129 165.000 L 183.000 162.200 181.200 162.000 L 179.400 161.800 179.279 159.921 L 179.158 158.042 177.279 157.921 L 175.400 157.800 175.280 155.949 L 175.160 154.098 173.180 153.835 L 171.200 153.572 171.200 152.010 C 171.200 149.996,170.879 149.835,166.803 149.816 L 163.400 149.800 163.280 147.941 C 163.151 145.952,162.725 145.618,160.300 145.605 C 159.264 145.600,159.200 145.496,159.200 143.800 C 159.200 142.212,159.094 141.995,158.300 141.961 C 155.263 141.828,155.409 141.922,155.272 140.007 C 155.126 137.944,154.772 137.615,152.700 137.606 L 151.200 137.600 151.200 135.847 C 151.200 133.959,150.758 133.618,148.300 133.605 C 147.268 133.600,147.200 133.492,147.200 131.843 C 147.200 129.901,146.847 129.600,144.567 129.600 C 143.218 129.600,143.200 129.576,143.200 127.843 C 143.200 125.904,142.846 125.600,140.589 125.600 C 139.268 125.600,139.242 125.566,139.122 123.700 L 139.000 121.800 137.100 121.678 L 135.200 121.556 135.200 119.821 C 135.200 117.697,134.998 117.600,130.567 117.600 L 127.200 117.600 127.200 115.560 L 127.200 113.521 136.154 113.812 C 141.079 113.972,146.470 113.975,148.133 113.819 L 151.157 113.536 151.279 111.868 C 151.384 110.424,151.534 110.185,152.400 110.088 C 152.950 110.026,153.805 109.888,154.300 109.780 L 155.200 109.585 155.200 97.614 L 155.200 85.644 153.300 85.522 L 151.400 85.400 151.278 83.500 L 151.156 81.600 139.200 81.600 L 127.244 81.600 127.122 83.500 M150.304 82.570 C 150.371 82.637,150.478 83.361,150.542 84.179 C 150.671 85.809,151.263 86.385,152.820 86.394 C 154.753 86.405,154.800 86.672,154.800 97.604 C 154.800 108.894,154.764 109.071,152.400 109.278 C 151.102 109.391,150.969 109.531,150.567 111.200 L 150.134 113.000 145.367 113.128 C 137.153 113.350,129.178 112.830,128.937 112.057 C 128.174 109.605,127.243 108.600,125.624 108.477 L 124.000 108.354 123.937 105.877 C 123.902 104.515,123.921 103.130,123.978 102.800 C 124.035 102.470,124.109 98.961,124.141 95.002 C 124.178 90.536,124.352 87.790,124.600 87.768 C 126.077 87.638,128.800 85.628,128.800 84.669 C 128.800 83.057,129.230 82.800,131.943 82.794 C 133.404 82.791,134.870 82.613,135.200 82.400 C 135.725 82.060,149.954 82.221,150.304 82.570 M126.852 110.470 C 127.982 112.253,127.272 113.600,125.200 113.600 L 123.200 113.600 123.200 111.547 L 123.200 109.495 124.858 109.717 C 125.769 109.839,126.667 110.178,126.852 110.470 M211.481 125.853 C 211.326 126.007,211.200 126.890,211.200 127.815 L 211.200 129.497 209.200 129.762 L 207.200 130.028 207.200 131.814 C 207.200 133.540,207.159 133.600,205.974 133.600 C 203.383 133.600,203.061 134.107,203.361 137.705 C 203.687 141.617,203.677 141.600,205.581 141.600 C 207.236 141.600,207.600 142.031,207.600 143.990 C 207.600 145.572,207.783 145.600,218.047 145.600 L 227.229 145.600 227.114 141.700 L 227.000 137.800 225.100 137.678 L 223.200 137.556 223.200 133.821 C 223.200 129.713,223.130 129.600,220.589 129.600 C 219.268 129.600,219.242 129.566,219.122 127.700 L 219.000 125.800 215.381 125.686 C 213.390 125.623,211.635 125.698,211.481 125.853 M219.122 135.700 L 219.244 137.600 217.222 137.600 L 215.200 137.600 215.200 135.867 C 215.200 133.713,215.380 133.534,217.385 133.681 L 219.000 133.800 219.122 135.700 M196.065 134.371 C 195.870 134.497,195.581 138.830,195.421 144.000 C 195.262 149.170,195.082 153.450,195.021 153.511 C 194.960 153.573,194.121 153.757,193.155 153.920 C 190.656 154.344,190.116 157.600,192.544 157.600 C 194.849 157.600,195.200 157.897,195.200 159.843 L 195.200 161.600 202.953 161.600 C 210.679 161.600,210.707 161.597,210.869 160.700 C 211.183 158.958,210.831 158.495,208.979 158.218 C 208.000 158.071,207.179 157.737,207.154 157.475 C 207.128 157.214,207.066 156.820,207.015 156.600 C 206.964 156.380,206.894 155.705,206.861 155.100 C 206.806 154.104,206.657 154.000,205.280 154.000 C 203.416 154.000,202.800 153.436,202.800 151.728 C 202.800 150.386,202.643 150.276,200.200 149.912 C 199.232 149.767,198.919 147.369,198.847 139.545 L 198.800 134.491 197.609 134.316 C 196.954 134.220,196.259 134.244,196.065 134.371 M223.756 158.971 C 223.159 160.526,223.755 161.397,225.500 161.523 L 227.200 161.646 227.249 163.323 C 227.276 164.245,227.411 166.890,227.549 169.200 L 227.800 173.400 234.959 173.720 C 243.339 174.095,243.200 174.124,243.200 172.000 C 243.200 170.239,243.460 170.013,245.635 169.882 C 246.993 169.800,247.001 169.810,247.200 171.800 L 247.400 173.800 253.200 174.000 L 259.000 174.200 259.122 176.100 L 259.244 178.000 267.922 178.075 C 272.695 178.116,277.140 178.161,277.800 178.175 C 278.921 178.198,279.008 178.312,279.123 179.898 C 279.288 182.182,279.458 182.232,287.509 182.367 C 295.900 182.508,295.600 182.662,295.600 178.200 C 295.600 174.657,295.981 173.861,297.488 174.255 C 299.074 174.670,299.800 173.849,299.805 171.635 L 299.810 169.613 289.805 169.507 L 279.800 169.400 279.678 167.500 L 279.556 165.600 271.578 165.600 L 263.600 165.600 263.600 163.590 L 263.600 161.579 257.500 161.690 L 251.400 161.800 251.286 165.700 L 251.171 169.600 249.186 169.600 L 247.200 169.600 247.143 165.500 C 247.112 163.245,247.053 161.040,247.012 160.600 C 246.786 158.195,247.871 158.400,235.387 158.400 C 225.870 158.400,223.939 158.495,223.756 158.971 M187.200 169.556 L 187.200 177.556 185.300 177.678 L 183.400 177.800 183.279 179.679 L 183.158 181.558 181.279 181.679 L 179.400 181.800 179.279 183.679 L 179.158 185.558 177.279 185.679 L 175.400 185.800 175.292 193.878 L 175.184 201.955 177.092 202.078 L 179.000 202.200 179.111 208.079 L 179.221 213.957 181.111 214.079 L 183.000 214.200 183.122 216.100 C 183.235 217.865,183.320 218.000,184.322 218.005 C 186.737 218.018,187.200 218.369,187.200 220.190 L 187.200 221.886 189.659 222.143 C 191.011 222.284,192.811 222.400,193.659 222.400 L 195.200 222.400 195.200 224.153 C 195.200 226.251,195.496 226.386,200.078 226.395 L 203.156 226.400 203.278 228.300 L 203.400 230.200 206.000 230.253 C 211.674 230.369,211.141 230.162,211.278 232.300 L 211.400 234.200 213.200 234.200 L 215.000 234.200 215.200 230.400 L 215.400 226.600 217.122 226.476 C 218.069 226.408,218.912 226.138,218.996 225.876 C 219.289 224.961,219.438 217.520,219.148 218.257 C 218.988 218.666,218.844 219.859,218.828 220.910 C 218.802 222.699,218.725 222.835,217.612 223.058 C 216.958 223.188,216.321 223.620,216.195 224.017 C 215.431 226.423,211.930 228.730,210.784 227.584 C 209.958 226.758,206.220 226.520,205.760 227.264 C 205.067 228.387,202.800 225.792,202.800 223.875 L 202.800 222.800 199.600 222.800 C 196.158 222.800,196.119 222.781,194.037 220.028 C 193.386 219.168,192.979 218.910,192.780 219.232 C 192.172 220.217,189.200 218.708,189.200 217.414 C 189.200 217.123,189.472 216.781,189.805 216.653 C 190.333 216.451,190.324 216.320,189.729 215.625 C 189.003 214.777,188.000 215.139,188.000 216.249 C 188.000 216.552,187.820 216.800,187.600 216.800 C 187.380 216.800,187.200 216.356,187.200 215.814 C 187.200 215.236,186.868 214.650,186.396 214.398 C 185.814 214.086,185.657 213.713,185.825 213.041 C 185.975 212.446,185.810 211.867,185.364 211.421 C 184.813 210.870,184.778 210.661,185.193 210.404 C 186.086 209.853,185.357 208.688,184.430 209.184 C 184.000 209.414,183.560 209.458,183.451 209.282 C 183.197 208.871,183.782 207.912,184.235 207.996 C 184.425 208.031,184.644 207.867,184.723 207.630 C 184.802 207.394,184.596 207.200,184.266 207.200 C 183.936 207.200,183.381 207.091,183.033 206.957 C 182.618 206.798,182.400 206.935,182.400 207.357 C 182.400 207.711,182.220 208.000,182.000 208.000 C 181.562 208.000,181.445 206.288,181.855 205.878 C 182.624 205.110,182.200 190.300,181.400 189.975 C 180.960 189.797,180.825 189.639,181.100 189.625 C 181.375 189.611,181.600 189.240,181.600 188.800 C 181.600 187.795,183.024 187.716,184.070 188.663 C 184.669 189.206,184.987 189.243,185.810 188.868 C 186.836 188.401,186.859 188.166,186.136 185.500 C 186.031 185.115,186.160 184.800,186.422 184.800 C 186.786 184.800,186.788 184.668,186.430 184.236 C 185.853 183.541,186.375 183.164,187.503 183.459 C 188.017 183.593,188.261 183.897,188.130 184.239 C 187.874 184.905,189.021 185.014,189.423 184.362 C 189.572 184.121,189.692 182.816,189.689 181.462 C 189.687 180.108,189.844 178.803,190.040 178.562 C 190.236 178.320,190.360 177.150,190.316 175.962 C 190.272 174.773,190.486 172.036,190.792 169.881 L 191.348 165.962 193.174 166.081 L 195.000 166.200 195.122 168.100 L 195.244 170.000 203.222 170.000 L 211.200 170.000 211.200 168.633 C 211.200 166.353,211.501 166.000,213.443 166.000 C 215.261 166.000,215.342 165.907,215.219 163.968 C 215.133 162.612,216.035 161.915,217.674 162.073 L 219.000 162.200 219.060 167.600 C 219.093 170.570,219.138 173.215,219.160 173.478 C 219.183 173.757,219.991 174.007,221.100 174.078 L 223.000 174.200 223.121 176.079 L 223.242 177.958 225.121 178.079 L 227.000 178.200 226.924 180.784 C 226.875 182.493,226.974 183.170,227.218 182.784 C 227.636 182.124,227.725 179.192,227.357 178.233 C 227.208 177.844,226.630 177.598,225.857 177.594 C 224.077 177.585,223.677 177.207,223.530 175.395 C 223.402 173.825,223.372 173.797,221.600 173.600 L 219.800 173.400 219.600 167.600 L 219.400 161.800 217.352 161.681 C 215.125 161.551,214.818 161.890,214.805 164.500 C 214.800 165.532,214.691 165.600,213.047 165.600 C 211.159 165.600,210.818 166.042,210.805 168.500 L 210.800 169.600 203.200 169.600 L 195.600 169.600 195.594 168.100 C 195.585 166.028,195.256 165.674,193.193 165.528 L 191.400 165.400 191.200 163.600 L 191.000 161.800 189.100 161.678 L 187.200 161.556 187.200 169.556 M263.122 164.092 L 263.243 165.983 271.122 166.092 L 279.000 166.200 279.124 167.922 C 279.282 170.109,278.604 169.968,289.600 170.093 L 299.000 170.200 299.122 171.877 L 299.244 173.554 297.322 173.677 L 295.400 173.800 295.285 177.709 L 295.171 181.617 287.485 181.509 L 279.800 181.400 279.600 179.600 L 279.400 177.800 269.645 177.600 L 259.891 177.400 259.743 176.000 C 259.486 173.556,259.674 173.631,253.517 173.511 L 247.800 173.400 247.800 172.000 C 247.800 170.656,247.864 170.595,249.395 170.470 C 251.464 170.302,251.587 170.049,251.594 165.933 C 251.601 161.770,251.176 162.031,257.800 162.126 L 263.000 162.200 263.122 164.092 M190.800 164.111 L 190.800 165.821 189.200 165.669 C 187.633 165.519,187.600 165.484,187.600 163.958 C 187.600 162.407,187.607 162.400,189.200 162.400 L 190.800 162.400 190.800 164.111 M307.685 174.296 L 299.969 174.417 300.085 177.909 L 300.200 181.400 301.659 181.522 C 303.201 181.650,303.583 182.230,303.595 184.457 C 303.602 185.807,304.155 186.000,308.025 186.000 C 311.687 186.000,311.530 185.795,311.699 190.800 L 311.800 193.800 313.487 193.922 C 315.564 194.073,315.568 194.063,315.702 187.200 L 315.800 182.200 317.600 182.200 C 319.365 182.200,319.403 182.227,319.533 183.598 C 319.703 185.390,320.227 186.000,321.600 186.000 C 322.973 186.000,323.497 185.390,323.667 183.598 C 323.788 182.323,323.923 182.188,325.198 182.067 C 327.063 181.890,327.600 181.370,327.600 179.738 C 327.600 178.298,327.715 178.210,330.122 177.809 C 331.628 177.558,331.643 177.538,331.522 175.878 L 331.400 174.200 323.400 174.187 C 319.000 174.180,311.928 174.229,307.685 174.296 M187.124 180.553 C 187.243 182.421,187.208 182.495,186.324 182.258 C 185.816 182.122,184.995 182.008,184.500 182.005 C 183.699 182.001,183.600 181.799,183.600 180.177 L 183.600 178.354 185.300 178.477 L 187.000 178.600 187.124 180.553 M183.200 184.447 C 183.200 186.374,183.147 186.479,182.300 186.252 C 181.805 186.119,180.995 186.008,180.500 186.005 C 179.701 186.001,179.600 185.798,179.600 184.200 L 179.600 182.400 181.400 182.400 L 183.200 182.400 183.200 184.447 M227.253 186.400 C 227.180 188.050,227.153 192.550,227.193 196.400 C 227.285 205.245,227.222 205.521,225.078 205.679 C 223.117 205.823,222.900 206.309,222.840 210.700 L 222.800 213.600 221.000 213.600 L 219.200 213.600 219.260 215.100 C 219.308 216.307,219.352 216.385,219.487 215.500 C 219.634 214.526,219.824 214.400,221.147 214.400 C 223.335 214.400,223.600 213.917,223.600 209.920 L 223.600 206.400 225.186 206.400 C 227.590 206.400,227.628 206.201,227.500 194.114 C 227.437 188.221,227.327 184.750,227.253 186.400 M179.200 188.200 L 179.200 190.000 177.400 190.000 L 175.600 190.000 175.600 188.200 L 175.600 186.400 177.400 186.400 L 179.200 186.400 179.200 188.200 M177.852 199.408 C 177.717 199.762,177.416 199.933,177.183 199.790 C 176.893 199.611,176.910 199.349,177.238 198.955 C 177.819 198.254,178.190 198.528,177.852 199.408 M199.636 224.369 C 199.326 224.565,198.831 224.633,198.536 224.520 C 197.690 224.196,197.906 223.999,199.100 224.006 C 199.901 224.011,200.047 224.109,199.636 224.369 M175.700 230.020 C 174.974 230.306,174.800 230.686,174.800 231.987 C 174.800 233.588,174.789 233.600,173.280 233.600 C 170.844 233.600,170.800 233.750,170.800 242.053 C 170.800 249.865,170.541 250.876,168.812 249.807 C 167.250 248.842,166.800 250.275,166.800 256.214 L 166.800 262.000 165.043 262.000 C 163.104 262.000,162.800 262.354,162.800 264.611 C 162.800 265.932,162.766 265.958,160.900 266.078 L 159.000 266.200 158.879 268.079 L 158.758 269.958 156.879 270.079 L 155.000 270.200 154.978 276.400 L 154.956 282.600 155.178 276.600 L 155.400 270.600 157.279 270.479 L 159.158 270.358 159.279 268.479 L 159.400 266.600 161.279 266.479 L 163.158 266.358 163.279 264.479 L 163.400 262.600 165.289 262.479 L 167.179 262.357 167.289 256.479 L 167.400 250.600 169.292 250.478 L 171.183 250.357 171.292 242.478 L 171.400 234.600 173.279 234.479 L 175.158 234.358 175.279 232.479 L 175.400 230.600 177.301 230.600 C 178.346 230.600,179.148 230.440,179.082 230.244 C 178.913 229.740,176.772 229.599,175.700 230.020 M179.232 233.700 C 179.204 234.320,179.636 234.400,183.000 234.400 L 186.800 234.400 186.800 235.767 C 186.800 238.335,186.906 238.400,191.043 238.400 L 194.800 238.400 194.805 239.500 C 194.817 241.890,195.178 242.400,196.859 242.400 C 198.513 242.400,198.586 242.485,198.983 244.878 C 199.216 246.282,199.311 246.361,200.912 246.478 C 202.581 246.599,202.599 246.617,202.941 248.500 L 203.287 250.400 211.043 250.400 L 218.800 250.400 218.833 251.500 C 218.851 252.105,218.898 253.802,218.937 255.270 C 219.020 258.417,219.037 258.442,221.158 258.472 C 222.640 258.492,222.800 258.593,222.800 259.501 C 222.800 267.269,223.054 277.989,223.243 278.177 C 223.377 278.311,224.144 278.445,224.948 278.475 C 227.072 278.555,227.198 278.916,227.094 284.634 L 227.000 289.800 225.100 289.922 L 223.200 290.044 223.200 292.000 L 223.200 293.956 221.300 294.078 L 219.400 294.200 219.382 300.000 L 219.364 305.800 219.493 300.300 L 219.623 294.800 221.131 294.800 C 223.034 294.800,223.600 294.233,223.600 292.328 C 223.600 290.741,223.789 290.604,226.400 290.312 L 227.400 290.200 227.512 284.655 C 227.638 278.396,227.497 278.000,225.151 278.000 L 223.600 278.000 223.600 268.633 C 223.600 257.660,223.672 258.000,221.357 258.000 C 219.820 258.000,219.592 257.887,219.537 257.100 C 219.401 255.157,219.284 252.931,219.243 251.500 L 219.200 250.000 211.447 250.000 C 202.810 250.000,203.221 250.145,203.205 247.100 C 203.200 246.067,203.092 246.000,201.438 246.000 L 199.675 246.000 199.400 244.000 L 199.125 242.000 197.405 242.000 C 195.504 242.000,195.200 241.637,195.200 239.367 L 195.200 238.000 191.443 238.000 C 187.306 238.000,187.200 237.935,187.200 235.367 L 187.200 234.000 183.433 234.000 C 180.794 234.000,179.606 233.850,179.465 233.500 C 179.344 233.201,179.250 233.282,179.232 233.700 M195.020 270.900 C 194.912 271.395,194.774 272.250,194.712 272.800 C 194.616 273.655,194.368 273.819,193.005 273.930 C 191.143 274.081,190.814 274.466,190.806 276.500 L 190.800 278.000 189.008 278.000 C 187.106 278.000,187.013 278.114,186.712 280.800 L 186.600 281.800 178.905 281.909 C 170.349 282.029,171.050 281.782,170.712 284.800 C 170.615 285.666,170.360 285.827,168.800 286.000 L 167.000 286.200 166.800 288.000 L 166.600 289.800 163.200 289.800 C 159.870 289.800,159.798 289.779,159.688 288.800 C 159.388 286.119,159.291 286.000,157.412 286.000 C 156.146 286.000,155.523 285.800,155.232 285.300 C 154.870 284.678,154.823 284.704,154.812 285.523 C 154.801 286.360,154.642 286.435,153.100 286.323 L 151.400 286.200 151.278 284.300 L 151.156 282.400 145.221 282.400 C 138.750 282.400,138.800 282.419,138.800 279.994 C 138.800 278.627,138.362 278.459,134.720 278.431 C 131.777 278.408,131.471 278.617,131.329 280.747 C 131.213 282.486,131.495 282.361,127.436 282.475 C 123.616 282.581,123.200 282.871,123.200 285.426 C 123.200 286.502,123.215 286.499,118.769 286.406 C 115.686 286.341,114.972 286.852,115.404 288.816 L 115.678 290.065 118.947 289.952 C 122.754 289.821,123.198 290.005,123.206 291.724 C 123.217 293.972,123.221 293.973,131.418 294.091 L 139.000 294.200 139.369 296.109 L 139.737 298.017 147.169 297.909 L 154.600 297.800 154.800 296.200 C 154.979 294.766,155.124 294.589,156.200 294.490 C 159.055 294.229,159.200 294.118,159.200 292.192 L 159.200 290.400 163.178 290.400 L 167.156 290.400 167.278 288.500 L 167.400 286.600 169.279 286.479 L 171.158 286.358 171.279 284.479 L 171.400 282.600 179.278 282.492 L 187.157 282.383 187.278 280.492 L 187.400 278.600 189.277 278.479 L 191.154 278.358 191.277 280.279 L 191.400 282.200 193.300 282.322 L 195.200 282.444 195.200 284.422 L 195.200 286.400 197.200 286.400 L 199.200 286.400 199.200 288.378 L 199.200 290.356 201.100 290.478 L 203.000 290.600 203.114 294.479 L 203.228 298.357 205.114 298.479 L 207.000 298.600 207.244 301.000 L 207.487 303.400 207.444 300.800 L 207.400 298.200 205.600 298.000 L 203.800 297.800 203.600 294.000 C 203.418 290.541,202.838 288.400,202.082 288.400 C 201.097 288.400,200.798 286.726,201.585 285.620 C 202.444 284.415,202.679 282.800,201.997 282.800 C 201.751 282.800,201.779 282.503,202.068 282.039 C 202.601 281.187,201.512 278.960,200.782 279.411 C 200.572 279.541,200.400 279.457,200.400 279.224 C 200.400 278.991,200.559 278.800,200.754 278.800 C 201.315 278.800,202.490 276.011,202.223 275.315 C 202.090 274.969,201.867 274.800,201.727 274.939 C 201.446 275.220,200.400 274.478,200.400 273.998 C 200.400 273.830,200.778 273.594,201.240 273.474 C 201.791 273.329,201.978 273.073,201.784 272.727 C 201.621 272.437,201.799 272.493,202.181 272.851 C 202.745 273.381,203.091 273.421,204.037 273.064 C 206.255 272.226,205.319 271.057,202.336 270.940 C 201.311 270.900,200.108 270.672,199.663 270.434 C 198.097 269.595,195.241 269.882,195.020 270.900 M199.120 272.245 L 199.241 273.889 197.538 274.118 C 195.379 274.407,195.200 274.279,195.200 272.443 C 195.200 269.536,198.908 269.348,199.120 272.245 M195.122 276.300 L 195.000 278.200 193.200 278.200 C 191.451 278.200,191.396 278.162,191.272 276.862 C 191.069 274.746,191.370 274.400,193.409 274.400 L 195.244 274.400 195.122 276.300 M198.800 280.418 C 198.800 280.597,199.083 281.026,199.430 281.373 C 199.974 281.916,199.980 282.033,199.474 282.227 C 199.126 282.361,198.970 282.766,199.091 283.226 C 199.259 283.869,199.083 284.000,198.047 284.000 C 196.598 284.000,196.392 283.417,197.700 283.020 C 198.382 282.813,198.454 282.690,198.000 282.514 C 196.601 281.973,195.508 280.491,196.216 280.095 C 196.953 279.683,198.800 279.913,198.800 280.418 M159.000 288.400 L 159.000 290.200 157.200 290.200 L 155.400 290.200 155.277 288.277 L 155.154 286.354 157.077 286.477 L 159.000 286.600 159.000 288.400 M184.073 286.755 C 183.712 286.978,183.599 288.039,183.683 290.434 L 183.800 293.800 185.395 293.930 C 187.252 294.081,187.586 294.467,187.594 296.477 C 187.600 297.928,187.630 297.956,189.300 298.077 L 191.000 298.200 191.200 300.200 L 191.400 302.200 193.279 302.321 L 195.158 302.442 195.279 304.321 L 195.400 306.200 197.300 306.322 L 199.200 306.444 199.200 308.198 C 199.200 310.444,199.371 310.524,203.418 310.187 L 206.800 309.905 206.800 308.360 C 206.800 306.758,206.715 306.690,204.205 306.311 C 203.328 306.179,203.352 306.267,202.994 301.949 L 202.741 298.897 201.137 298.682 C 199.106 298.410,199.295 298.811,199.121 294.400 L 198.972 290.600 197.192 290.472 C 195.197 290.329,194.815 289.956,194.806 288.143 C 194.803 287.433,194.554 286.791,194.235 286.669 C 193.352 286.330,184.641 286.404,184.073 286.755 M207.260 305.066 L 207.200 306.332 209.796 306.466 C 211.224 306.540,213.969 306.496,215.896 306.369 C 219.008 306.164,218.742 306.130,213.527 306.069 L 207.653 306.000 207.487 304.900 C 207.327 303.849,207.317 303.857,207.260 305.066 " stroke="none" fill="#b16c4f" fill-rule="evenodd"></path><path id="path1" d="M215.829 166.629 C 215.483 166.974,215.200 167.781,215.200 168.421 C 215.200 169.618,214.876 169.811,212.400 170.088 C 211.534 170.185,211.373 170.440,211.200 172.000 L 211.000 173.800 203.652 173.909 C 195.543 174.030,195.314 173.970,195.122 171.678 C 195.006 170.289,194.914 170.203,193.229 169.918 C 192.255 169.753,191.327 169.406,191.167 169.147 C 190.797 168.547,190.192 173.585,190.328 176.140 C 190.384 177.208,190.225 178.329,189.973 178.632 C 189.638 179.037,189.632 179.515,189.951 180.431 C 190.241 181.263,190.255 181.924,189.993 182.413 C 189.777 182.817,189.645 183.564,189.700 184.074 C 189.780 184.812,189.582 185.025,188.729 185.124 C 187.363 185.282,186.898 185.859,186.733 187.602 C 186.608 188.920,186.509 189.007,185.000 189.120 C 182.484 189.310,182.400 189.605,182.400 198.227 C 182.400 206.727,182.379 206.656,185.005 206.870 L 186.600 207.000 186.717 210.380 C 186.841 213.923,187.255 214.963,188.400 214.600 C 189.720 214.181,190.498 214.812,190.241 216.095 C 189.947 217.563,191.198 218.767,193.037 218.787 C 194.128 218.798,194.329 218.987,194.751 220.393 C 195.367 222.450,196.098 222.800,199.774 222.800 L 202.800 222.800 202.800 223.956 C 202.800 226.457,203.684 226.871,208.943 226.830 C 214.236 226.789,214.734 226.632,215.794 224.663 C 216.277 223.765,216.923 223.195,217.611 223.058 C 218.716 222.837,219.200 220.426,219.200 215.140 L 219.200 213.600 221.000 213.600 L 222.800 213.600 222.840 210.700 C 222.900 206.309,223.117 205.823,225.078 205.679 C 227.243 205.520,227.211 205.701,227.173 193.721 C 227.135 181.888,227.152 182.000,225.371 182.000 C 223.797 182.000,223.029 180.949,223.292 179.154 C 223.459 178.020,223.429 178.000,221.558 178.000 C 219.452 178.000,219.133 177.611,219.213 175.137 C 219.464 167.339,218.227 164.230,215.829 166.629 M181.600 185.600 L 180.200 185.895 181.700 185.947 C 182.525 185.976,183.200 185.820,183.200 185.600 C 183.200 185.380,183.155 185.224,183.100 185.253 C 183.045 185.282,182.370 185.438,181.600 185.600 M177.417 234.085 C 175.215 234.554,175.213 234.563,175.206 242.492 L 175.200 249.585 174.200 249.792 C 173.650 249.907,172.750 250.093,172.200 250.208 L 171.200 250.415 171.200 255.928 C 171.200 261.845,171.029 262.400,169.200 262.400 C 167.923 262.400,167.200 263.071,167.200 264.256 C 167.200 265.281,166.768 265.634,164.800 266.211 C 163.541 266.580,163.387 266.781,163.270 268.205 C 163.122 270.012,162.722 270.385,160.924 270.394 C 160.222 270.397,159.553 270.552,159.438 270.738 C 159.122 271.250,159.187 285.939,159.514 288.000 L 159.800 289.800 163.200 289.800 L 166.600 289.800 166.800 288.000 L 167.000 286.200 168.800 286.000 C 170.360 285.827,170.615 285.666,170.712 284.800 C 171.050 281.782,170.349 282.029,178.905 281.909 L 186.600 281.800 186.712 280.800 C 187.013 278.114,187.106 278.000,189.008 278.000 L 190.800 278.000 190.806 276.500 C 190.814 274.466,191.143 274.081,193.005 273.930 C 194.368 273.819,194.616 273.655,194.712 272.800 C 195.013 270.108,195.103 270.000,197.034 270.000 C 198.034 270.000,199.198 270.185,199.620 270.411 C 200.042 270.637,201.515 270.894,202.894 270.982 C 205.966 271.179,206.878 271.506,206.710 272.350 C 206.624 272.787,206.164 273.000,205.307 273.000 C 202.866 273.000,202.730 273.464,202.740 281.746 C 202.745 285.843,202.896 289.421,203.075 289.697 C 203.254 289.974,203.490 291.910,203.600 294.000 L 203.800 297.800 205.600 298.000 L 207.400 298.200 207.521 300.300 L 207.642 302.400 210.788 302.400 C 215.285 302.400,215.200 302.469,215.200 298.790 C 215.200 294.909,215.387 294.400,216.810 294.400 C 218.670 294.400,219.200 294.015,219.206 292.657 C 219.215 290.911,219.594 290.472,221.417 290.095 C 222.888 289.791,223.014 289.656,223.200 288.189 C 223.386 286.722,223.507 286.593,224.904 286.367 C 226.929 286.041,226.965 285.978,227.138 282.567 C 227.312 279.119,227.009 278.553,224.948 278.475 C 224.144 278.445,223.377 278.311,223.243 278.177 C 223.054 277.989,222.800 267.269,222.800 259.501 C 222.800 258.593,222.640 258.492,221.158 258.472 C 219.037 258.442,219.020 258.417,218.937 255.270 C 218.898 253.802,218.851 252.105,218.833 251.500 L 218.800 250.400 211.043 250.400 L 203.287 250.400 202.941 248.500 C 202.599 246.617,202.581 246.599,200.912 246.478 C 199.311 246.361,199.216 246.282,198.983 244.878 C 198.586 242.485,198.513 242.400,196.859 242.400 C 195.178 242.400,194.817 241.890,194.805 239.500 L 194.800 238.400 191.043 238.400 C 186.906 238.400,186.800 238.335,186.800 235.767 L 186.800 234.400 183.033 234.400 C 180.962 234.400,179.207 234.253,179.133 234.074 C 179.060 233.895,178.288 233.900,177.417 234.085 " stroke="none" fill="#f4c613" fill-rule="evenodd"></path><path id="path2" d="M126.800 78.629 C 126.800 80.439,126.039 81.200,124.229 81.200 C 123.004 81.200,122.800 81.332,122.800 82.120 C 122.800 84.100,121.912 85.194,120.300 85.197 C 118.907 85.200,118.800 85.284,118.800 86.376 C 118.800 87.023,118.620 87.664,118.400 87.800 C 118.180 87.936,118.000 89.197,118.000 90.602 L 118.000 93.156 116.100 93.278 L 114.200 93.400 114.078 95.300 L 113.956 97.200 111.978 97.200 L 110.000 97.200 110.013 109.300 C 110.027 122.771,110.032 122.800,112.544 122.800 C 113.821 122.800,114.000 122.920,114.000 123.776 C 114.000 124.313,114.180 124.864,114.400 125.000 C 114.620 125.136,114.800 125.597,114.800 126.024 C 114.800 126.689,115.087 126.800,116.800 126.800 L 118.800 126.800 118.800 128.800 L 118.800 130.800 120.800 130.800 L 122.800 130.800 122.800 134.800 L 122.800 138.800 124.824 138.800 C 125.984 138.800,126.748 138.960,126.615 139.176 C 126.487 139.382,126.500 140.282,126.643 141.176 L 126.902 142.800 128.851 142.800 L 130.800 142.800 130.800 144.800 L 130.800 146.800 132.800 146.800 L 134.800 146.800 134.800 148.800 L 134.800 150.800 136.800 150.800 L 138.800 150.800 138.800 152.800 L 138.800 154.800 140.800 154.800 L 142.800 154.800 142.800 156.800 L 142.800 158.800 144.800 158.800 L 146.800 158.800 146.800 160.800 L 146.800 162.800 148.800 162.800 L 150.800 162.800 150.800 164.800 L 150.800 166.800 152.800 166.800 L 154.800 166.800 154.800 168.800 L 154.800 170.800 156.800 170.800 L 158.800 170.800 158.800 172.800 L 158.800 174.800 160.800 174.800 L 162.800 174.800 162.800 176.800 L 162.800 178.800 164.800 178.800 L 166.800 178.800 166.800 180.800 L 166.800 182.800 168.800 182.800 L 170.800 182.800 170.800 192.800 L 170.800 202.800 172.800 202.800 L 174.800 202.800 174.800 212.000 L 174.800 221.200 170.800 221.200 L 166.800 221.200 166.800 223.200 L 166.800 225.200 164.800 225.200 L 162.800 225.200 162.800 229.200 L 162.800 233.200 160.800 233.200 L 158.800 233.200 158.800 239.200 L 158.800 245.200 156.800 245.200 L 154.800 245.200 154.800 249.200 L 154.800 253.200 152.800 253.200 L 150.800 253.200 150.800 257.200 L 150.800 261.200 148.800 261.200 L 146.800 261.200 146.800 265.200 L 146.800 269.200 142.800 269.200 L 138.800 269.200 138.800 271.200 L 138.800 273.200 134.800 273.200 L 130.800 273.200 130.800 275.200 L 130.800 277.200 126.800 277.200 L 122.800 277.200 122.800 279.200 L 122.800 281.200 117.200 281.200 L 111.600 281.200 111.600 279.200 L 111.600 277.200 103.371 277.200 C 94.213 277.200,94.000 277.258,94.000 279.771 C 94.000 281.148,93.947 281.200,92.544 281.200 C 90.453 281.200,90.028 281.989,90.013 285.900 L 90.000 289.200 88.571 289.200 C 86.761 289.200,86.000 289.961,86.000 291.771 C 86.000 293.114,85.922 293.201,84.700 293.213 C 81.935 293.240,82.000 292.920,82.000 306.544 L 82.000 318.800 84.000 318.800 L 86.000 318.800 86.000 320.800 L 86.000 322.800 90.800 322.800 L 95.600 322.800 95.600 320.800 L 95.600 318.800 97.600 318.800 L 99.600 318.800 99.600 316.800 L 99.600 314.800 101.600 314.800 L 103.600 314.800 103.600 312.800 L 103.600 310.800 105.600 310.800 L 107.600 310.800 107.600 308.800 L 107.600 306.800 109.600 306.800 L 111.600 306.800 111.600 304.800 L 111.600 302.800 113.600 302.800 L 115.600 302.800 115.600 300.800 L 115.600 298.800 117.600 298.800 L 119.600 298.800 119.600 296.800 C 119.600 294.863,119.636 294.800,120.751 294.800 C 122.236 294.800,122.890 295.619,122.729 297.276 L 122.600 298.600 130.264 298.709 L 137.928 298.817 138.364 300.068 C 138.604 300.756,138.800 301.653,138.800 302.060 C 138.800 302.761,139.346 302.800,149.200 302.800 L 159.600 302.800 159.600 298.800 L 159.600 294.800 163.600 294.800 L 167.600 294.800 167.600 292.800 L 167.600 290.800 169.600 290.800 L 171.600 290.800 171.600 289.280 C 171.600 287.472,172.163 286.800,173.680 286.800 C 174.757 286.800,174.800 286.876,174.800 288.800 L 174.800 290.800 176.800 290.800 L 178.800 290.800 178.800 292.800 L 178.800 294.800 180.800 294.800 L 182.800 294.800 182.800 296.800 L 182.800 298.800 184.800 298.800 L 186.800 298.800 186.800 300.800 L 186.800 302.800 188.800 302.800 L 190.800 302.800 190.800 304.800 L 190.800 306.800 192.800 306.800 L 194.800 306.800 194.800 308.800 L 194.800 310.800 196.800 310.800 L 198.800 310.800 198.800 312.800 L 198.800 314.800 202.800 314.800 L 206.800 314.800 206.800 316.813 L 206.800 318.825 211.500 318.713 L 216.200 318.600 216.321 316.721 L 216.442 314.842 218.321 314.721 L 220.200 314.600 220.322 312.700 L 220.444 310.800 222.422 310.800 L 224.400 310.800 224.400 308.800 L 224.400 306.800 226.400 306.800 L 228.400 306.800 228.400 300.822 L 228.400 294.844 230.300 294.722 L 232.200 294.600 232.308 286.480 C 232.429 277.415,232.372 277.200,229.829 277.200 L 228.400 277.200 228.387 267.900 C 228.373 257.487,228.305 257.200,225.856 257.200 L 224.400 257.200 224.400 254.528 C 224.400 250.212,223.853 249.200,221.520 249.200 L 219.600 249.200 219.600 245.824 C 219.600 243.967,219.780 242.336,220.000 242.200 C 220.244 242.049,220.400 238.996,220.400 234.376 L 220.400 226.800 221.856 226.800 C 224.133 226.800,224.373 226.165,224.387 220.100 L 224.400 214.800 225.829 214.800 C 228.037 214.800,228.400 214.154,228.400 210.229 L 228.400 206.800 229.829 206.800 C 232.453 206.800,232.400 207.099,232.400 192.229 L 232.400 178.800 245.600 178.800 L 258.800 178.800 258.800 180.800 L 258.800 182.800 268.800 182.800 L 278.800 182.800 278.800 184.800 L 278.800 186.800 290.800 186.800 L 302.800 186.800 302.800 188.800 L 302.800 190.800 304.800 190.800 L 306.800 190.800 306.800 192.800 L 306.800 194.800 308.800 194.800 L 310.800 194.800 310.800 196.800 L 310.800 198.800 313.600 198.800 L 316.400 198.800 316.400 196.800 L 316.400 194.800 318.400 194.800 L 320.400 194.800 320.400 192.800 L 320.400 190.800 322.400 190.800 L 324.400 190.800 324.400 188.800 L 324.400 186.800 326.400 186.800 L 328.400 186.800 328.400 184.800 L 328.400 182.800 330.400 182.800 L 332.400 182.800 332.400 180.800 L 332.400 178.800 334.400 178.800 L 336.400 178.800 336.400 176.000 L 336.400 173.200 334.400 173.200 L 332.400 173.200 332.400 171.200 L 332.400 169.200 316.400 169.200 L 300.400 169.200 300.400 167.200 L 300.400 165.200 290.400 165.200 L 280.400 165.200 280.400 163.200 L 280.400 161.200 272.400 161.200 L 264.400 161.200 264.400 159.771 C 264.400 157.287,264.111 157.200,255.829 157.200 L 248.400 157.200 248.400 155.200 L 248.400 153.200 238.400 153.200 L 228.400 153.200 228.400 150.000 L 228.400 146.800 229.856 146.800 C 231.965 146.800,232.375 146.019,232.375 142.000 C 232.375 137.981,231.965 137.200,229.856 137.200 L 228.400 137.200 228.387 133.900 C 228.372 129.989,227.947 129.200,225.856 129.200 L 224.400 129.200 224.400 125.200 L 224.400 121.200 222.422 121.200 L 220.444 121.200 220.322 119.300 L 220.200 117.400 207.500 117.294 L 194.800 117.189 194.800 119.194 L 194.800 121.200 192.800 121.200 L 190.800 121.200 190.800 123.200 L 190.800 125.200 188.800 125.200 L 186.800 125.200 186.800 134.000 L 186.800 142.800 188.800 142.800 L 190.800 142.800 190.800 148.000 L 190.800 153.200 188.800 153.200 L 186.800 153.200 186.800 155.200 L 186.800 157.200 183.200 157.200 L 179.600 157.200 179.600 155.200 L 179.600 153.200 177.600 153.200 L 175.600 153.200 175.600 151.200 L 175.600 149.200 173.600 149.200 L 171.600 149.200 171.600 147.200 L 171.600 145.200 167.600 145.200 L 163.600 145.200 163.600 143.200 L 163.600 141.200 161.600 141.200 L 159.600 141.200 159.600 139.200 L 159.600 137.200 157.600 137.200 L 155.600 137.200 155.600 135.200 L 155.600 133.200 153.600 133.200 L 151.600 133.200 151.600 131.200 L 151.600 129.200 149.600 129.200 L 147.600 129.200 147.600 127.200 L 147.600 125.200 145.600 125.200 L 143.600 125.200 143.600 123.200 L 143.600 121.200 141.600 121.200 C 139.644 121.200,139.600 121.173,139.600 120.000 L 139.600 118.800 145.600 118.800 L 151.600 118.800 151.600 116.800 L 151.600 114.800 153.600 114.800 L 155.600 114.800 155.600 112.800 L 155.600 110.800 157.600 110.800 L 159.600 110.800 159.600 98.022 L 159.600 85.244 157.700 85.122 L 155.800 85.000 155.678 83.100 L 155.556 81.200 153.578 81.200 L 151.600 81.200 151.600 79.200 L 151.600 77.200 139.200 77.200 L 126.800 77.200 126.800 78.629 M151.278 83.500 L 151.400 85.400 153.300 85.522 L 155.200 85.644 155.200 97.614 L 155.200 109.585 154.300 109.780 C 153.805 109.888,152.950 110.026,152.400 110.088 C 151.534 110.185,151.384 110.424,151.279 111.868 L 151.157 113.536 148.133 113.819 C 146.470 113.975,141.079 113.972,136.154 113.812 L 127.200 113.521 127.200 115.560 L 127.200 117.600 130.567 117.600 C 134.998 117.600,135.200 117.697,135.200 119.821 L 135.200 121.556 137.100 121.678 L 139.000 121.800 139.122 123.700 C 139.242 125.566,139.268 125.600,140.589 125.600 C 142.846 125.600,143.200 125.904,143.200 127.843 C 143.200 129.576,143.218 129.600,144.567 129.600 C 146.847 129.600,147.200 129.901,147.200 131.843 C 147.200 133.492,147.268 133.600,148.300 133.605 C 150.758 133.618,151.200 133.959,151.200 135.847 L 151.200 137.600 152.700 137.606 C 154.772 137.615,155.126 137.944,155.272 140.007 C 155.409 141.922,155.263 141.828,158.300 141.961 C 159.094 141.995,159.200 142.212,159.200 143.800 C 159.200 145.496,159.264 145.600,160.300 145.605 C 162.725 145.618,163.151 145.952,163.280 147.941 L 163.400 149.800 166.803 149.816 C 170.879 149.835,171.200 149.996,171.200 152.010 L 171.200 153.572 173.180 153.835 L 175.160 154.098 175.280 155.949 L 175.400 157.800 177.279 157.921 L 179.158 158.042 179.279 159.921 L 179.400 161.800 181.200 162.000 L 183.000 162.200 183.129 165.000 C 183.200 166.540,183.140 169.105,182.995 170.700 L 182.732 173.600 180.980 173.600 L 179.228 173.600 178.962 175.600 L 178.697 177.600 176.967 177.600 C 175.278 177.600,175.230 177.636,174.987 179.100 C 174.590 181.488,174.502 181.600,173.013 181.600 C 171.601 181.600,171.410 181.349,171.506 179.617 C 171.580 178.288,170.789 177.600,169.186 177.600 C 167.810 177.600,167.599 177.481,167.595 176.700 C 167.583 174.775,167.141 174.000,166.053 173.995 C 163.649 173.982,163.200 173.631,163.200 171.767 L 163.200 170.028 161.200 169.762 L 159.200 169.497 159.200 167.791 C 159.200 165.909,158.832 165.600,156.589 165.600 C 155.268 165.600,155.242 165.566,155.122 163.700 L 155.000 161.800 153.300 161.677 C 151.811 161.569,151.600 161.436,151.600 160.603 C 151.600 158.723,150.895 157.600,149.710 157.594 C 148.110 157.585,147.733 157.208,147.414 155.300 C 147.150 153.720,147.040 153.600,145.865 153.594 C 144.312 153.586,143.413 153.055,143.359 152.112 C 143.212 149.538,143.301 149.650,141.300 149.522 L 139.400 149.400 139.279 147.521 L 139.158 145.642 137.279 145.521 C 135.419 145.401,135.400 145.386,135.359 143.957 C 135.300 141.916,134.984 141.600,132.998 141.600 L 131.244 141.600 131.122 139.700 L 131.000 137.800 129.114 137.679 L 127.228 137.557 127.114 133.679 L 127.000 129.800 125.121 129.679 L 123.242 129.558 123.121 127.679 C 123.001 125.822,122.980 125.796,121.317 125.447 C 119.713 125.110,119.621 125.011,119.374 123.367 L 119.115 121.640 117.258 121.520 L 115.400 121.400 115.400 109.600 L 115.400 97.800 117.200 97.800 L 119.000 97.800 119.111 103.700 L 119.221 109.600 121.211 109.600 L 123.200 109.600 123.200 97.622 L 123.200 85.644 125.100 85.522 L 127.000 85.400 127.122 83.500 L 127.244 81.600 139.200 81.600 L 151.156 81.600 151.278 83.500 M123.200 111.547 L 123.200 113.600 125.200 113.600 C 127.191 113.600,127.200 113.594,127.194 112.300 C 127.185 110.457,126.745 109.970,124.858 109.717 L 123.200 109.495 123.200 111.547 M219.122 127.700 C 219.242 129.566,219.268 129.600,220.589 129.600 C 223.130 129.600,223.200 129.713,223.200 133.821 L 223.200 137.556 225.100 137.678 L 227.000 137.800 227.114 141.700 L 227.229 145.600 218.047 145.600 C 207.783 145.600,207.600 145.572,207.600 143.990 C 207.600 142.031,207.236 141.600,205.581 141.600 C 203.677 141.600,203.687 141.617,203.361 137.705 C 203.061 134.107,203.383 133.600,205.974 133.600 C 207.159 133.600,207.200 133.540,207.200 131.814 L 207.200 130.028 209.200 129.762 L 211.200 129.497 211.200 127.815 C 211.200 125.568,211.225 125.555,215.381 125.686 L 219.000 125.800 219.122 127.700 M215.485 133.848 C 215.328 134.005,215.200 134.913,215.200 135.867 L 215.200 137.600 217.222 137.600 L 219.244 137.600 219.122 135.700 L 219.000 133.800 217.385 133.681 C 216.498 133.616,215.643 133.691,215.485 133.848 M198.847 139.545 C 198.919 147.369,199.232 149.767,200.200 149.912 C 202.643 150.276,202.800 150.386,202.800 151.728 C 202.800 153.436,203.416 154.000,205.280 154.000 C 206.657 154.000,206.806 154.104,206.861 155.100 C 206.894 155.705,206.964 156.380,207.015 156.600 C 207.066 156.820,207.128 157.214,207.154 157.475 C 207.179 157.737,208.000 158.071,208.979 158.218 C 210.831 158.495,211.183 158.958,210.869 160.700 C 210.707 161.597,210.679 161.600,202.953 161.600 L 195.200 161.600 195.200 159.843 C 195.200 157.897,194.849 157.600,192.544 157.600 C 190.116 157.600,190.656 154.344,193.155 153.920 C 194.121 153.757,194.960 153.573,195.021 153.511 C 195.082 153.450,195.262 149.170,195.421 144.000 C 195.727 134.088,195.738 134.041,197.609 134.316 L 198.800 134.491 198.847 139.545 M246.868 159.100 C 246.906 159.485,246.971 160.160,247.012 160.600 C 247.053 161.040,247.112 163.245,247.143 165.500 L 247.200 169.600 249.186 169.600 L 251.171 169.600 251.286 165.700 L 251.400 161.800 257.500 161.690 L 263.600 161.579 263.600 163.590 L 263.600 165.600 271.578 165.600 L 279.556 165.600 279.678 167.500 L 279.800 169.400 289.805 169.507 L 299.810 169.613 299.805 171.635 C 299.800 173.849,299.074 174.670,297.488 174.255 C 295.981 173.861,295.600 174.657,295.600 178.200 C 295.600 182.662,295.900 182.508,287.509 182.367 C 279.458 182.232,279.288 182.182,279.123 179.898 C 279.008 178.312,278.921 178.198,277.800 178.175 C 277.140 178.161,272.695 178.116,267.922 178.075 L 259.244 178.000 259.122 176.100 L 259.000 174.200 253.200 174.000 L 247.400 173.800 247.200 171.800 C 247.001 169.810,246.993 169.800,245.635 169.882 C 243.460 170.013,243.200 170.239,243.200 172.000 C 243.200 174.124,243.339 174.095,234.959 173.720 L 227.800 173.400 227.549 169.200 C 227.411 166.890,227.276 164.245,227.249 163.323 L 227.200 161.646 225.500 161.523 C 223.755 161.397,223.159 160.526,223.756 158.971 C 224.126 158.006,246.774 158.133,246.868 159.100 M191.200 163.600 L 191.400 165.400 193.193 165.528 C 195.256 165.674,195.585 166.028,195.594 168.100 L 195.600 169.600 203.200 169.600 L 210.800 169.600 210.805 168.500 C 210.818 166.042,211.159 165.600,213.047 165.600 C 214.691 165.600,214.800 165.532,214.805 164.500 C 214.818 161.890,215.125 161.551,217.352 161.681 L 219.400 161.800 219.600 167.600 L 219.800 173.400 221.600 173.600 C 223.372 173.797,223.402 173.825,223.530 175.395 C 223.677 177.207,224.077 177.585,225.857 177.594 C 227.583 177.602,227.527 177.141,227.577 191.750 C 227.627 206.365,227.622 206.400,225.186 206.400 L 223.600 206.400 223.600 209.920 C 223.600 213.908,223.333 214.400,221.172 214.400 C 219.427 214.400,219.390 214.534,219.238 221.400 C 219.127 226.385,219.164 226.302,217.000 226.473 L 215.400 226.600 215.200 230.400 L 215.000 234.200 213.200 234.200 L 211.400 234.200 211.278 232.300 C 211.141 230.162,211.674 230.369,206.000 230.253 L 203.400 230.200 203.278 228.300 L 203.156 226.400 200.078 226.395 C 195.496 226.386,195.200 226.251,195.200 224.153 L 195.200 222.400 193.659 222.400 C 192.811 222.400,191.011 222.284,189.659 222.143 L 187.200 221.886 187.200 220.190 C 187.200 218.369,186.737 218.018,184.322 218.005 C 183.320 218.000,183.235 217.865,183.122 216.100 L 183.000 214.200 181.111 214.079 L 179.221 213.957 179.111 208.079 L 179.000 202.200 177.092 202.078 L 175.184 201.955 175.292 193.878 L 175.400 185.800 177.279 185.679 L 179.158 185.558 179.279 183.679 L 179.400 181.800 181.279 181.679 L 183.158 181.558 183.279 179.679 L 183.400 177.800 185.300 177.678 L 187.200 177.556 187.200 169.556 L 187.200 161.556 189.100 161.678 L 191.000 161.800 191.200 163.600 M331.522 175.878 C 331.643 177.538,331.628 177.558,330.122 177.809 C 327.715 178.210,327.600 178.298,327.600 179.738 C 327.600 181.370,327.063 181.890,325.198 182.067 C 323.923 182.188,323.788 182.323,323.667 183.598 C 323.497 185.390,322.973 186.000,321.600 186.000 C 320.227 186.000,319.703 185.390,319.533 183.598 C 319.403 182.227,319.365 182.200,317.600 182.200 L 315.800 182.200 315.702 187.200 C 315.568 194.063,315.564 194.073,313.487 193.922 L 311.800 193.800 311.699 190.800 C 311.530 185.795,311.687 186.000,308.025 186.000 C 304.155 186.000,303.602 185.807,303.595 184.457 C 303.583 182.230,303.201 181.650,301.659 181.522 L 300.200 181.400 300.085 177.909 L 299.969 174.417 307.685 174.296 C 311.928 174.229,319.000 174.180,323.400 174.187 L 331.400 174.200 331.522 175.878 M179.110 231.043 C 179.401 234.120,179.227 234.000,183.408 234.000 L 187.200 234.000 187.200 235.367 C 187.200 237.935,187.306 238.000,191.443 238.000 L 195.200 238.000 195.200 239.367 C 195.200 241.637,195.504 242.000,197.405 242.000 L 199.125 242.000 199.400 244.000 L 199.675 246.000 201.438 246.000 C 203.092 246.000,203.200 246.067,203.205 247.100 C 203.221 250.145,202.810 250.000,211.447 250.000 L 219.200 250.000 219.243 251.500 C 219.284 252.931,219.401 255.157,219.537 257.100 C 219.592 257.887,219.820 258.000,221.357 258.000 C 223.672 258.000,223.600 257.660,223.600 268.633 L 223.600 278.000 225.151 278.000 C 227.497 278.000,227.638 278.396,227.512 284.655 L 227.400 290.200 226.400 290.312 C 223.789 290.604,223.600 290.741,223.600 292.328 C 223.600 294.236,223.034 294.800,221.120 294.800 L 219.600 294.800 219.594 300.100 C 219.591 303.015,219.455 305.608,219.293 305.863 C 219.009 306.310,215.347 306.531,209.714 306.440 L 207.229 306.400 207.114 302.500 L 207.000 298.600 205.114 298.479 L 203.228 298.357 203.114 294.479 L 203.000 290.600 201.100 290.478 L 199.200 290.356 199.200 288.378 L 199.200 286.400 197.200 286.400 L 195.200 286.400 195.200 284.422 L 195.200 282.444 193.300 282.322 L 191.400 282.200 191.277 280.279 L 191.154 278.358 189.277 278.479 L 187.400 278.600 187.278 280.492 L 187.157 282.383 179.278 282.492 L 171.400 282.600 171.279 284.479 L 171.158 286.358 169.279 286.479 L 167.400 286.600 167.278 288.500 L 167.156 290.400 163.178 290.400 L 159.200 290.400 159.200 292.192 C 159.200 294.118,159.055 294.229,156.200 294.490 C 155.124 294.589,154.979 294.766,154.800 296.200 L 154.600 297.800 147.169 297.909 L 139.737 298.017 139.369 296.109 L 139.000 294.200 131.418 294.091 C 123.221 293.973,123.217 293.972,123.206 291.724 C 123.198 290.005,122.754 289.821,118.947 289.952 L 115.678 290.065 115.404 288.816 C 114.972 286.852,115.686 286.341,118.769 286.406 C 123.215 286.499,123.200 286.502,123.200 285.426 C 123.200 282.871,123.616 282.581,127.436 282.475 C 131.495 282.361,131.213 282.486,131.329 280.747 C 131.471 278.617,131.777 278.408,134.720 278.431 C 138.362 278.459,138.800 278.627,138.800 279.994 C 138.800 282.419,138.750 282.400,145.221 282.400 L 151.156 282.400 151.278 284.300 L 151.400 286.200 153.100 286.323 C 154.633 286.434,154.805 286.355,154.849 285.523 C 154.876 285.015,154.921 281.360,154.949 277.400 L 155.000 270.200 156.879 270.079 L 158.758 269.958 158.879 268.079 L 159.000 266.200 160.900 266.078 C 162.766 265.958,162.800 265.932,162.800 264.611 C 162.800 262.354,163.104 262.000,165.043 262.000 L 166.800 262.000 166.800 256.214 C 166.800 250.275,167.250 248.842,168.812 249.807 C 170.541 250.876,170.800 249.865,170.800 242.053 C 170.800 233.750,170.844 233.600,173.280 233.600 C 174.789 233.600,174.800 233.588,174.800 231.987 C 174.800 229.415,178.871 228.524,179.110 231.043 M195.485 270.648 C 195.096 271.037,195.123 273.905,195.518 274.149 C 195.693 274.257,196.602 274.243,197.538 274.118 L 199.241 273.889 199.120 272.245 C 199.002 270.626,196.574 269.559,195.485 270.648 M191.359 274.962 C 190.613 276.905,191.349 278.200,193.200 278.200 L 195.000 278.200 195.122 276.300 L 195.244 274.400 193.409 274.400 C 192.203 274.400,191.501 274.592,191.359 274.962 M155.277 288.277 L 155.400 290.200 157.200 290.200 L 159.000 290.200 159.000 288.400 L 159.000 286.600 157.077 286.477 L 155.154 286.354 155.277 288.277 M194.235 286.669 C 194.554 286.791,194.803 287.433,194.806 288.143 C 194.815 289.956,195.197 290.329,197.192 290.472 L 198.972 290.600 199.121 294.400 C 199.295 298.811,199.106 298.410,201.137 298.682 L 202.741 298.897 202.994 301.949 C 203.352 306.267,203.328 306.179,204.205 306.311 C 206.715 306.690,206.800 306.758,206.800 308.360 L 206.800 309.905 203.418 310.187 C 199.371 310.524,199.200 310.444,199.200 308.198 L 199.200 306.444 197.300 306.322 L 195.400 306.200 195.279 304.321 L 195.158 302.442 193.279 302.321 L 191.400 302.200 191.200 300.200 L 191.000 298.200 189.300 298.077 C 187.630 297.956,187.600 297.928,187.594 296.477 C 187.586 294.467,187.252 294.081,185.395 293.930 L 183.800 293.800 183.683 290.434 C 183.599 288.039,183.712 286.978,184.073 286.755 C 184.641 286.404,193.352 286.330,194.235 286.669 " stroke="none" fill="#261e27" fill-rule="evenodd"></path><path id="path3" d="M215.634 162.559 C 215.361 162.888,215.171 163.572,215.213 164.079 C 215.360 165.875,215.245 166.000,213.443 166.000 C 211.501 166.000,211.200 166.353,211.200 168.633 L 211.200 170.000 203.222 170.000 L 195.244 170.000 195.122 168.100 L 195.000 166.200 193.100 166.078 L 191.200 165.956 191.200 167.760 C 191.200 169.533,191.225 169.568,192.700 169.813 C 195.082 170.209,195.200 170.300,195.200 171.738 C 195.200 173.940,195.547 174.030,203.652 173.909 L 211.000 173.800 211.200 172.000 C 211.373 170.440,211.534 170.185,212.400 170.088 C 214.876 169.811,215.200 169.618,215.200 168.421 C 215.200 166.846,216.207 165.921,217.753 166.075 C 218.999 166.200,219.000 166.199,219.000 164.200 L 219.000 162.200 217.566 162.080 C 216.657 162.004,215.950 162.179,215.634 162.559 M252.100 162.259 C 251.755 162.402,251.598 163.542,251.594 165.933 C 251.587 170.049,251.464 170.302,249.395 170.470 C 247.864 170.595,247.800 170.656,247.800 172.000 L 247.800 173.400 253.517 173.511 C 259.674 173.631,259.486 173.556,259.743 176.000 L 259.891 177.400 269.645 177.600 L 279.400 177.800 279.600 179.600 L 279.800 181.400 287.485 181.509 L 295.171 181.617 295.285 177.709 L 295.400 173.800 297.322 173.677 L 299.244 173.554 299.122 171.877 L 299.000 170.200 289.600 170.093 C 278.604 169.968,279.282 170.109,279.124 167.922 L 279.000 166.200 271.122 166.092 L 263.243 165.983 263.122 164.092 L 263.000 162.200 257.800 162.126 C 254.940 162.085,252.375 162.145,252.100 162.259 M187.600 163.958 C 187.600 165.484,187.633 165.519,189.200 165.669 L 190.800 165.821 190.800 164.111 L 190.800 162.400 189.200 162.400 C 187.607 162.400,187.600 162.407,187.600 163.958 M219.485 174.248 C 219.137 174.597,219.111 176.502,219.443 177.367 C 219.614 177.813,220.211 178.000,221.465 178.000 L 223.244 178.000 223.122 176.100 L 223.000 174.200 221.385 174.081 C 220.498 174.016,219.643 174.091,219.485 174.248 M223.485 178.248 C 222.220 179.513,223.724 182.112,225.618 181.931 C 226.970 181.803,227.000 181.761,227.000 180.000 L 227.000 178.200 225.385 178.081 C 224.498 178.016,223.643 178.091,223.485 178.248 M183.600 180.195 L 183.600 182.036 185.100 181.770 C 188.055 181.244,188.210 178.688,185.300 178.477 L 183.600 178.354 183.600 180.195 M179.600 184.190 L 179.600 185.980 180.900 185.755 C 183.077 185.379,183.200 185.276,183.200 183.813 C 183.200 182.405,183.194 182.400,181.400 182.400 L 179.600 182.400 179.600 184.190 M175.600 188.200 C 175.600 190.142,176.532 190.599,178.426 189.586 C 180.181 188.647,179.457 186.400,177.400 186.400 L 175.600 186.400 175.600 188.200 M175.485 230.648 C 175.328 230.805,175.200 231.703,175.200 232.645 L 175.200 234.356 173.300 234.478 L 171.400 234.600 171.292 242.478 L 171.183 250.357 169.292 250.478 L 167.400 250.600 167.289 256.479 L 167.179 262.357 165.289 262.479 L 163.400 262.600 163.279 264.479 L 163.158 266.358 161.279 266.479 L 159.400 266.600 159.279 268.479 L 159.158 270.358 157.279 270.479 L 155.400 270.600 155.400 278.200 L 155.400 285.800 157.200 285.800 L 159.000 285.800 159.200 278.200 L 159.400 270.600 160.400 270.488 C 162.983 270.199,163.149 270.073,163.277 268.309 C 163.390 266.764,163.518 266.587,164.800 266.211 C 166.768 265.633,167.200 265.281,167.200 264.256 C 167.200 263.071,167.923 262.400,169.200 262.400 C 171.029 262.400,171.200 261.845,171.200 255.928 C 171.200 250.532,171.219 250.411,172.100 250.233 C 172.595 250.132,173.495 249.945,174.100 249.817 L 175.200 249.585 175.206 242.492 C 175.213 234.562,175.216 234.550,177.417 234.093 C 179.898 233.578,179.873 230.664,177.385 230.481 C 176.498 230.416,175.643 230.491,175.485 230.648 M224.800 286.355 C 223.524 286.578,223.382 286.740,223.200 288.184 C 223.014 289.657,222.889 289.791,221.417 290.095 C 219.594 290.472,219.215 290.911,219.206 292.657 C 219.200 294.015,218.670 294.400,216.810 294.400 C 215.387 294.400,215.200 294.909,215.200 298.790 C 215.200 302.467,215.282 302.400,210.810 302.400 C 207.394 302.400,207.180 302.549,207.498 304.700 L 207.691 306.000 213.435 306.000 L 219.179 306.000 219.289 300.100 L 219.400 294.200 221.300 294.078 L 223.200 293.956 223.200 292.000 L 223.200 290.044 225.100 289.922 L 227.000 289.800 227.000 288.033 C 227.000 286.101,226.862 285.995,224.800 286.355 " stroke="none" fill="#f1f0ec" fill-rule="evenodd"></path><path id="path4" d="M135.200 82.400 C 134.870 82.613,133.404 82.791,131.943 82.794 C 129.230 82.800,128.800 83.057,128.800 84.669 C 128.800 85.628,126.077 87.638,124.600 87.768 C 124.352 87.790,124.178 90.536,124.141 95.002 C 124.109 98.961,124.035 102.470,123.978 102.800 C 123.921 103.130,123.902 104.515,123.937 105.877 L 124.000 108.354 125.624 108.477 C 127.243 108.600,128.174 109.605,128.937 112.057 C 129.178 112.830,137.153 113.350,145.367 113.128 L 150.134 113.000 150.567 111.200 C 150.969 109.531,151.102 109.391,152.400 109.278 C 154.764 109.071,154.800 108.894,154.800 97.604 C 154.800 86.672,154.753 86.405,152.820 86.394 C 151.263 86.385,150.671 85.809,150.542 84.179 C 150.478 83.361,150.371 82.637,150.304 82.570 C 149.954 82.221,135.725 82.060,135.200 82.400 M189.600 181.600 C 189.600 182.347,189.707 182.453,190.080 182.080 C 190.453 181.707,190.453 181.493,190.080 181.120 C 189.707 180.747,189.600 180.853,189.600 181.600 M186.234 183.545 C 186.098 183.765,186.189 184.070,186.436 184.222 C 186.737 184.408,186.749 184.584,186.474 184.754 C 186.214 184.915,186.183 185.524,186.390 186.404 C 186.590 187.254,186.734 187.467,186.759 186.949 C 186.809 185.920,187.470 185.324,188.769 185.138 C 189.301 185.062,189.819 184.730,189.919 184.400 C 190.065 183.916,189.998 183.896,189.570 184.300 C 188.824 185.004,187.862 184.936,188.145 184.200 C 188.271 183.870,188.215 183.600,188.020 183.600 C 187.825 183.600,187.399 183.498,187.073 183.373 C 186.747 183.248,186.370 183.325,186.234 183.545 M181.600 188.800 C 181.600 189.240,181.375 189.613,181.100 189.628 C 180.825 189.644,180.960 189.811,181.400 190.000 C 182.619 190.524,182.739 190.472,182.558 189.500 C 182.466 189.005,182.492 188.806,182.615 189.058 C 182.738 189.309,183.194 189.422,183.628 189.309 C 184.247 189.147,184.318 188.984,183.959 188.551 C 183.233 187.676,181.600 187.848,181.600 188.800 M182.148 196.800 C 182.148 199.110,182.214 200.055,182.295 198.900 C 182.376 197.745,182.376 195.855,182.295 194.700 C 182.214 193.545,182.148 194.490,182.148 196.800 M177.238 198.955 C 176.910 199.349,176.893 199.611,177.183 199.790 C 177.416 199.933,177.717 199.762,177.852 199.408 C 178.190 198.528,177.819 198.254,177.238 198.955 M182.093 203.200 C 182.093 203.970,182.175 204.285,182.276 203.900 C 182.376 203.515,182.376 202.885,182.276 202.500 C 182.175 202.115,182.093 202.430,182.093 203.200 M181.868 205.866 C 181.448 206.285,181.555 208.000,182.000 208.000 C 182.220 208.000,182.400 207.711,182.400 207.357 C 182.400 206.935,182.618 206.798,183.033 206.957 C 183.381 207.091,183.936 207.200,184.266 207.200 C 184.596 207.200,184.802 207.394,184.723 207.630 C 184.644 207.867,184.425 208.031,184.235 207.996 C 183.782 207.912,183.197 208.871,183.451 209.282 C 183.560 209.458,184.000 209.414,184.430 209.184 C 185.357 208.688,186.086 209.853,185.193 210.404 C 184.778 210.661,184.813 210.870,185.364 211.421 C 185.810 211.867,185.975 212.446,185.825 213.041 C 185.657 213.713,185.814 214.086,186.396 214.398 C 186.868 214.650,187.200 215.236,187.200 215.814 C 187.200 216.356,187.380 216.800,187.600 216.800 C 187.820 216.800,188.000 216.552,188.000 216.249 C 188.000 215.303,189.145 214.591,189.438 215.355 C 189.742 216.146,190.400 216.206,190.400 215.443 C 190.400 214.758,189.327 214.306,188.400 214.600 C 187.255 214.963,186.841 213.923,186.717 210.380 L 186.600 207.000 185.000 206.870 C 184.120 206.799,183.115 206.484,182.768 206.170 C 182.420 205.855,182.015 205.719,181.868 205.866 M189.206 217.300 C 189.215 218.031,189.685 218.620,190.674 219.140 C 191.750 219.706,192.800 219.736,192.800 219.200 C 192.800 218.980,192.573 218.800,192.296 218.800 C 192.019 218.800,191.307 218.350,190.713 217.800 C 189.501 216.676,189.197 216.575,189.206 217.300 M193.693 219.600 C 193.968 220.040,194.312 220.400,194.459 220.400 C 194.605 220.400,194.631 220.040,194.516 219.600 C 194.401 219.160,194.056 218.800,193.750 218.800 C 193.293 218.800,193.283 218.944,193.693 219.600 M198.000 224.157 C 198.000 224.546,199.127 224.692,199.636 224.369 C 200.047 224.109,199.901 224.011,199.100 224.006 C 198.495 224.003,198.000 224.071,198.000 224.157 M204.400 227.200 C 204.400 227.420,204.659 227.600,204.976 227.600 C 205.293 227.600,205.664 227.420,205.800 227.200 C 205.936 226.980,205.677 226.800,205.224 226.800 C 204.771 226.800,204.400 226.980,204.400 227.200 M210.400 227.180 C 210.400 228.306,212.938 228.461,213.360 227.361 C 213.522 226.938,213.185 226.800,211.987 226.800 C 211.114 226.800,210.400 226.971,210.400 227.180 M205.000 272.200 C 205.000 272.892,205.219 273.200,205.713 273.200 C 206.626 273.200,207.089 272.029,206.358 271.566 C 205.411 270.966,205.000 271.158,205.000 272.200 M201.771 272.727 C 201.977 273.078,201.800 273.327,201.240 273.474 C 200.778 273.594,200.400 273.830,200.400 273.998 C 200.400 274.478,201.446 275.220,201.727 274.939 C 201.867 274.800,202.090 274.969,202.223 275.315 C 202.490 276.011,201.315 278.800,200.754 278.800 C 200.559 278.800,200.400 278.991,200.400 279.224 C 200.400 279.457,200.568 279.544,200.773 279.417 C 200.978 279.290,201.399 279.548,201.709 279.991 C 202.556 281.200,202.800 280.578,202.800 277.213 C 202.800 275.534,202.938 273.989,203.107 273.780 C 203.275 273.571,203.335 273.445,203.239 273.501 C 203.143 273.556,202.704 273.286,202.264 272.901 C 201.823 272.515,201.602 272.437,201.771 272.727 M196.216 280.095 C 195.508 280.491,196.601 281.973,198.000 282.514 C 198.454 282.690,198.382 282.813,197.700 283.020 C 196.392 283.417,196.598 284.000,198.047 284.000 C 199.083 284.000,199.259 283.869,199.091 283.226 C 198.970 282.766,199.126 282.361,199.474 282.227 C 199.980 282.033,199.974 281.916,199.430 281.373 C 199.083 281.026,198.800 280.597,198.800 280.418 C 198.800 279.913,196.953 279.683,196.216 280.095 M201.804 282.393 C 201.666 282.617,201.743 282.800,201.976 282.800 C 202.677 282.800,202.455 284.399,201.585 285.620 C 200.896 286.588,200.849 286.889,201.277 287.574 C 202.414 289.396,202.800 288.898,202.800 285.611 C 202.800 282.680,202.409 281.415,201.804 282.393 " stroke="none" fill="#f57a3e" fill-rule="evenodd"></path></g></svg>